# xmcd
#
# Track frame offsets: 
#        150
#        16668
#        33369
#        55680
#        74538
#        93445
#        110098
#        124792
#        138957
#        154471
#        174766
#        191187
#
# Disc length: 2806 seconds
#
# Revision: 0
# Processed by: cddbd v1.5.2PL0 Copyright (c) Steve Scherf et al.
# Submitted via: ExactAudioCopy v1.0b3
#
DISCID=a00af40c
DTITLE=ASKA - いま歌うシリーズ　僕にできること
DYEAR=2013
DGENRE=JPop
TTITLE0=君は薔薇より美しい
TTITLE1=巴里にひとり
TTITLE2=木綿のハンカチーフ
TTITLE3=さらば恋人
TTITLE4=廃墟の鳩
TTITLE5=上を向いて歩こう
TTITLE6=生きがい
TTITLE7=蒼い星くず
TTITLE8=七色のしあわせ
TTITLE9=旅人よ
TTITLE10=ここに幸あり
TTITLE11=見上げてごらん夜の星を
EXTD=
EXTT0=
EXTT1=
EXTT2=
EXTT3=
EXTT4=
EXTT5=
EXTT6=
EXTT7=
EXTT8=
EXTT9=
EXTT10=
EXTT11=
PLAYORDER=
